[IMG]http://i981.photobucket.com/albums/ae294/fasamoo/gogo.gif[/IMG]


[IMG]http://i981.photobucket.com/albums/ae294/fasamoo/plot.gif[/IMG]

After a power source for the community of Krypton survivors is accidentally whisked to earth, Kara-El, cousin to Superman and niece to Jor-El, chooses to go to earth to find it, and bring it back. Upon her arrival, she becomes just a powerful and Super as her cousin, but encounters dangerous battles and unexpected obstacles when a mean spirited woman who practices rituals of the occult takes the power source for herself, and uses it to cause destruction and attempt zenith human status. 
 
[IMG]http://i981.photobucket.com/albums/ae294/fasamoo/screenshots.gif[/IMG]

[IMG]http://i981.photobucket.com/albums/ae294/fasamoo/SUPER_GIRL_20100527-05534079.jpg[/IMG]
[IMG]http://i981.photobucket.com/albums/ae294/fasamoo/SUPER_GIRL_20100527-05533114.jpg[/IMG]
[IMG]http://i981.photobucket.com/albums/ae294/fasamoo/SUPER_GIRL_20100527-05531890.jpg[/IMG]
[IMG]http://i981.photobucket.com/albums/ae294/fasamoo/SUPER_GIRL_20100527-05511425.jpg[/IMG]
[IMG]http://i981.photobucket.com/albums/ae294/fasamoo/SUPER_GIRL_20100527-05501968.jpg[/IMG]
[IMG]http://i981.photobucket.com/albums/ae294/fasamoo/SUPER_GIRL_20100527-05484687.jpg[/IMG]
[IMG]http://i981.photobucket.com/albums/ae294/fasamoo/SUPER_GIRL_20100527-05453315.jpg[/IMG]
[IMG]http://i981.photobucket.com/albums/ae294/fasamoo/SUPER_GIRL_20100527-05421323.jpg[/IMG]
[IMG]http://i981.photobucket.com/albums/ae294/fasamoo/SUPER_GIRL_20100527-05561053.jpg[/IMG]

[IMG]http://i981.photobucket.com/albums/ae294/fasamoo/info.gif[/IMG]

General
Complete name                    : Supergirl 1984 DVDRip GoGo.avi
IMDB Link                        : http://www.imdb.com/title/tt0088206/
Format                           : AVI
Format/Info                      : Audio Video Interleave
File size                        : 800 MiB
Duration                         : 2h 12mn
Overall bit rate                 : 845 Kbps
Writing application              : VirtualDubMod 1.5.4.1 (build 2178/release)
Writing library                  : VirtualDubMod build 2178/release

Video
ID                               : 0
Format                           : MPEG-4 Visual
Format profile                   : Advanced Simple@L5
Format settings, BVOP            : Yes
Format settings, QPel            : No
Format settings, GMC             : No warppoints
Format settings, Matrix          : Custom
Codec ID                         : XVID
Codec ID/Hint                    : XviD
Duration                         : 2h 12mn
Bit rate                         : 724 Kbps
Width                            : 608 pixels
Height                           : 240 pixels
Display aspect ratio             : 2.533
Frame rate                       : 23.976 fps
Resolution                       : 8 bits
Colorimetry                      : 4:2:0
Scan type                        : Progressive
Bits/(Pixel*Frame)               : 0.207
Stream size                      : 685 MiB (86%)
Writing library                  : XviD 1.2.1 (UTC 2008-12-04)

Audio
ID                               : 1
Format                           : MPEG Audio
Format version                   : Version 1
Format profile                   : Layer 3
Mode                             : Joint stereo
Format_Settings_ModeExtension    : MS Stereo
Codec ID                         : 55
Codec ID/Hint                    : MP3
Duration                         : 2h 4mn
Bit rate mode                    : Variable
Bit rate                         : 115 Kbps
Nominal bit rate                 : 128 Kbps
Channel(s)                       : 2 channels
Sampling rate                    : 48.0 KHz
Stream size                      : 103 MiB (13%)
Alignment                        : Aligned on interleaves
Interleave, duration             : 26 ms (0.61 video frame)
Interleave, preload duration     : 159 ms
Writing library                  : LAME3.98r
Encoding settings                : -m j -V 4 -q 2 -lowpass 17 --abr 128
Language                         : English
Subtitles                        : None
Genre                            : Action | Adventure | Sci-Fi

[img]http://i948.photobucket.com/albums/ad329/80s-Girl/supergirl-movie.jpg[/img]                                    

[IMG]http://i981.photobucket.com/albums/ae294/fasamoo/pleaseseed.gif[/IMG] 
